# xmcd
#
# Track frame offsets: 
#        187
#        16842
#        35495
#        51452
#        72280
#        88282
#        110020
#        129735
#        153677
#        171775
#        191505
#        211775
#        236912
#
# Disc length: 3427 seconds
#
# Revision: 10
# Processed by: cddbd v1.5.2PL0 Copyright (c) Steve Scherf et al.
# Submitted via: ExactAudioCopy v1.3
#
DISCID=bd0d610d
DTITLE=高橋真梨子 - Collection
DYEAR=1993
DGENRE=J-Pop
TTITLE0=ジョニーへの伝言
TTITLE1=五番街のマリーへ
TTITLE2=桃色吐息
TTITLE3=for you…
TTITLE4=陽かげりの街
TTITLE5=貴方が生きたLove Song <with 玉置浩二>
TTITLE6=はがゆい唇
TTITLE7=テンダネス
TTITLE8=あなたの空を翔びたい
TTITLE9=ジュン
TTITLE10=ハート＆ハート ～時には強く時には優しく
TTITLE11=グランパ
TTITLE12=THANKS
EXTD=YEAR: 1993
EXTT0=
EXTT1=
EXTT2=
EXTT3=
EXTT4=
EXTT5=
EXTT6=
EXTT7=
EXTT8=
EXTT9=
EXTT10=
EXTT11=
EXTT12=
PLAYORDER=
